<svg id="login-svg" xmlns="http://www.w3.org/2000/svg" xmlns:xlink="http://www.w3.org/1999/xlink" version="1.1" x="0px" y="0px" viewBox="0 0 100 125"><path d=" M 49.95 29.25 Q 49.4 28.65 48.55 28.65 47.75 28.65 47.15 29.25 46.55 29.8 46.55 30.65 46.55 31.45 47.1 32.05 L 59.05 44 25.4 44 Q 24.55 44 23.95 44.6 23.4 45.15 23.4 46 23.4 46.85 23.95 47.45 24.55 48 25.4 48 L 59 48 47.1 59.9 Q 46.55 60.45 46.55 61.3 46.55 62.15 47.1 62.75 47.7 63.3 48.55 63.3 49.4 63.3 49.95 62.75 L 65.25 47.45 Q 65.425 47.2 65.6 46.95 65.75 46.7 65.8 46.4 65.8 46.35 65.8 46.3 65.825 46.15 65.85 46 65.85 45.5 65.6 45.1 65.425 44.85 65.25 44.6 65.2 44.5 65.05 44.4 L 49.95 29.25 M 72.95 13.95 Q 72.35 14.5 72.35 15.35 L 72.35 76.6 Q 72.35 77.45 72.95 78.05 73.5 78.6 74.35 78.6 75.2 78.6 75.8 78.05 76.35 77.45 76.35 76.6 L 76.35 15.35 Q 76.35 14.5 75.8 13.95 75.2 13.35 74.35 13.35 73.5 13.35 72.95 13.95 Z"/></svg>
