<svg id="logout-svg" xmlns="http://www.w3.org/2000/svg" xmlns:xlink="http://www.w3.org/1999/xlink" version="1.1" x="0px" y="0px" viewBox="0 0 100 125"><path d=" M 42.1 32.05 Q 42.65 31.45 42.65 30.65 42.65 29.8 42.05 29.25 41.45 28.65 40.65 28.65 39.8 28.65 39.25 29.25 L 24.15 44.4 Q 24 44.5 23.95 44.6 23.775 44.85 23.6 45.1 23.35 45.5 23.35 46 23.375 46.15 23.4 46.3 23.4 46.35 23.4 46.4 23.45 46.7 23.6 46.95 23.775 47.2 23.95 47.45 L 39.25 62.75 Q 39.8 63.3 40.65 63.3 41.5 63.3 42.1 62.75 42.65 62.15 42.65 61.3 42.65 60.45 42.1 59.9 L 30.2 48 63.8 48 Q 64.65 48 65.25 47.45 65.8 46.85 65.8 46 65.8 45.15 65.25 44.6 64.65 44 63.8 44 L 30.15 44 42.1 32.05 M 72.95 13.95 Q 72.35 14.5 72.35 15.35 L 72.35 76.6 Q 72.35 77.45 72.95 78.05 73.5 78.6 74.35 78.6 75.2 78.6 75.8 78.05 76.35 77.45 76.35 76.6 L 76.35 15.35 Q 76.35 14.5 75.8 13.95 75.2 13.35 74.35 13.35 73.5 13.35 72.95 13.95 Z"/></svg>
