<svg xmlns="http://www.w3.org/2000/svg" xmlns:xlink="http://www.w3.org/1999/xlink" version="1.1" x="0px" y="0px" viewBox="0 0 100 125"><path d="M96.438,89.368L73.3,66.229c12.099-15.59,11.004-38.174-3.306-52.482C62.481,6.234,52.493,2.097,41.87,2.097 c-10.624,0-20.611,4.137-28.123,11.65c-7.513,7.512-11.65,17.5-11.65,28.124c0,10.624,4.138,20.612,11.649,28.125 c7.513,7.512,17.5,11.649,28.124,11.649c8.938,0,17.419-2.938,24.362-8.341l23.136,23.136c0.976,0.976,2.256,1.464,3.535,1.464 s2.56-0.488,3.535-1.464C98.392,94.486,98.392,91.32,96.438,89.368z M20.817,62.923c-5.624-5.624-8.721-13.101-8.721-21.053 c0-7.953,3.097-15.429,8.722-21.053c5.623-5.624,13.099-8.721,21.052-8.721c7.952,0,15.43,3.097,21.054,8.721 c11.608,11.608,11.608,30.496,0,42.105c-5.624,5.624-13.102,8.721-21.054,8.721C33.917,71.644,26.441,68.547,20.817,62.923z"/></svg>
